<svg width="28" height="28" fill="none" xmlns="http://www.w3.org/2000/svg"><path d="M21.651 28a3.74 3.74 0 0 1-.81-.091 27.286 27.286 0 0 1-13.469-7.252A27.282 27.282 0 0 1 .08 7.191a3.878 3.878 0 0 1 .093-1.92 3.808 3.808 0 0 1 1-1.627L4.415.454A1.608 1.608 0 0 1 5.663.006c.236.025.463.102.666.227s.377.293.51.494l4.051 6.124a1.349 1.349 0 0 1-.089 1.575l-2.034 2.486a15.7 15.7 0 0 0 3.38 4.88 15.593 15.593 0 0 0 4.918 3.39l2.52-2.047a1.306 1.306 0 0 1 1.507-.1l6.12 4.045c.21.128.388.303.522.512a1.68 1.68 0 0 1 .185 1.432 1.664 1.664 0 0 1-.376.633l-3.16 3.2a3.835 3.835 0 0 1-1.254.85c-.469.196-.97.296-1.477.293ZM5.533 1.647 2.29 4.837c-.261.25-.455.564-.561.912a2.15 2.15 0 0 0-.047 1.077A25.608 25.608 0 0 0 8.5 19.472a25.668 25.668 0 0 0 12.674 6.82c.36.078.735.062 1.088-.045.354-.107.676-.302.938-.567l3.16-3.2-5.907-3.903-2.707 2.205a.803.803 0 0 1-.746.14 16.222 16.222 0 0 1-5.964-3.936A16.174 16.174 0 0 1 7.09 11.02a.847.847 0 0 1 .194-.787l2.188-2.677-3.938-5.908Z" fill="#7C7C81"/></svg>