<svg width="27" height="27" fill="none" xmlns="http://www.w3.org/2000/svg"><rect y=".405" width="27" height="26" rx="13" fill="url(#a)"/><path d="M13.5 8.08h2.765c.65 0 .976.156 1.22.234.325.157.57.235.813.47.244.235.407.47.488.783.081.235.163.548.244 1.175v5.325c0 .627-.163.94-.244 1.175-.163.313-.244.548-.488.783s-.488.392-.813.47c-.244.078-.57.156-1.22.235h-5.53c-.65 0-.976-.157-1.22-.235-.325-.157-.57-.235-.813-.47-.244-.235-.407-.47-.488-.783-.081-.235-.163-.548-.244-1.175v-5.325c0-.627.163-.94.244-1.175.163-.313.244-.548.488-.783s.488-.392.813-.47c.244-.078.57-.156 1.22-.235H13.5Zm0-1.175h-2.765c-.732 0-1.22.156-1.627.313A3.565 3.565 0 0 0 7.888 8c-.406.391-.569.705-.813 1.175-.162.391-.244.861-.325 1.566v5.326c0 .705.163 1.175.325 1.567.163.391.407.783.814 1.174.406.392.731.548 1.22.783.406.157.894.235 1.626.313h5.53c.732 0 1.22-.156 1.627-.313a3.565 3.565 0 0 0 1.22-.783c.406-.391.569-.705.813-1.174.162-.392.244-.862.325-1.567v-5.325c0-.705-.163-1.175-.325-1.566A3.412 3.412 0 0 0 19.11 8c-.406-.392-.732-.548-1.22-.783-.406-.157-.894-.235-1.626-.313H13.5Z" fill="#fff"/><path d="M13.5 10.037c-1.952 0-3.497 1.488-3.497 3.367 0 1.88 1.545 3.368 3.497 3.368s3.497-1.488 3.497-3.367c0-1.88-1.545-3.368-3.497-3.368Zm0 5.56c-1.22 0-2.277-.94-2.277-2.192 0-1.175.976-2.193 2.277-2.193 1.22 0 2.277.94 2.277 2.193 0 1.174-1.057 2.192-2.277 2.192Zm3.578-4.855c.45 0 .814-.35.814-.783 0-.433-.364-.783-.814-.783-.449 0-.813.35-.813.783 0 .432.364.783.813.783Z" fill="#fff"/><defs><radialGradient id="a" cx="0" cy="0" r="1" gradientUnits="userSpaceOnUse" gradientTransform="matrix(62.351 0 0 60.0417 27.543 .933)"><stop stop-color="#F9ED32"/><stop offset=".36" stop-color="#EE2A7B"/><stop offset=".44" stop-color="#D22A8A"/><stop offset=".6" stop-color="#8B2AB2"/><stop offset=".83" stop-color="#1B2AF0"/><stop offset=".88" stop-color="#002AFF"/></radialGradient></defs></svg>