<svg width="17" height="17" fill="none" xmlns="http://www.w3.org/2000/svg"><path d="M13.145 17c-.165 0-.33-.02-.492-.055a16.566 16.566 0 0 1-8.177-4.403A16.563 16.563 0 0 1 .048 4.366c-.08-.387-.06-.789.056-1.166.117-.377.326-.717.608-.988L2.68.275a.98.98 0 0 1 .758-.272.97.97 0 0 1 .713.438l2.46 3.719a.819.819 0 0 1-.054.955l-1.235 1.51a9.531 9.531 0 0 0 2.052 2.964 9.467 9.467 0 0 0 2.986 2.057l1.53-1.242a.797.797 0 0 1 .916-.06l3.714 2.455a1.02 1.02 0 0 1 .202 1.565l-1.919 1.942a2.329 2.329 0 0 1-.76.516c-.285.12-.59.18-.898.178ZM3.36 1 1.391 2.937a1.306 1.306 0 0 0-.369 1.208 15.548 15.548 0 0 0 4.138 7.678 15.585 15.585 0 0 0 7.695 4.14 1.325 1.325 0 0 0 1.23-.372l1.919-1.942-3.587-2.37-1.643 1.338a.487.487 0 0 1-.453.086 9.849 9.849 0 0 1-3.621-2.39A9.82 9.82 0 0 1 4.304 6.69a.514.514 0 0 1 .118-.478L5.75 4.587 3.36 1Z" fill="#fff"/></svg>