<svg width="25" height="25" fill="none" xmlns="http://www.w3.org/2000/svg"><path d="M0 12.5C0 5.596 5.596 0 12.5 0S25 5.596 25 12.5 19.404 25 12.5 25 0 19.404 0 12.5Z" fill="red"/><path d="M21.062 8.207a2.238 2.238 0 0 0-1.575-1.575C18.09 6.25 12.5 6.25 12.5 6.25s-5.59 0-6.988.368a2.283 2.283 0 0 0-1.574 1.589c-.367 1.397-.367 4.295-.367 4.295s0 2.913.367 4.295a2.24 2.24 0 0 0 1.574 1.575c1.413.382 6.988.382 6.988.382s5.59 0 6.988-.368a2.238 2.238 0 0 0 1.574-1.574c.367-1.397.367-4.295.367-4.295s.015-2.913-.367-4.31Z" fill="#fff"/><path d="m10.72 15.18 4.648-2.678-4.648-2.677v5.354Z" fill="red"/></svg>