<svg width="34" height="34" fill="none" xmlns="http://www.w3.org/2000/svg"><path d="M11.855 6.786 7.979 5.492a2.833 2.833 0 0 0-3.729 2.69v16.692a2.833 2.833 0 0 0 1.938 2.689l5.667 1.888c.58.194 1.21.194 1.79 0l6.71-2.236a2.834 2.834 0 0 1 1.79 0l3.876 1.293a2.833 2.833 0 0 0 3.729-2.69V9.125a2.834 2.834 0 0 0-1.937-2.689L22.147 4.55a2.833 2.833 0 0 0-1.792 0l-6.711 2.235a2.833 2.833 0 0 1-1.79 0v.002Z" stroke="#fff" stroke-width="2" stroke-linecap="round" stroke-linejoin="round"/><path d="M21.25 4.25v22.667m-8.5-19.834V29.75 7.083Z" stroke="#fff" stroke-width="2" stroke-linejoin="round"/></svg>