<svg width="22" height="22" fill="none" xmlns="http://www.w3.org/2000/svg"><path d="M4.813 3.667h12.375a2.979 2.979 0 0 1 2.974 2.81l.005.169v8.708a2.98 2.98 0 0 1-2.81 2.975l-.17.004H4.813a2.979 2.979 0 0 1-2.975-2.81l-.005-.169V6.646a2.98 2.98 0 0 1 2.81-2.975l.17-.004h12.375H4.813Zm13.979 4.925-7.471 3.932a.687.687 0 0 1-.553.04l-.088-.039-7.472-3.932v6.761a1.604 1.604 0 0 0 1.473 1.599l.132.005h12.375a1.604 1.604 0 0 0 1.598-1.473l.006-.13V8.591Zm-1.605-3.55H4.813a1.604 1.604 0 0 0-1.6 1.472l-.005.132v.393L11 11.14l7.792-4.1v-.393a1.605 1.605 0 0 0-1.473-1.599l-.131-.005Z" fill="#fff"/></svg>