<svg width="27" height="27" fill="none" xmlns="http://www.w3.org/2000/svg"><rect y=".405" width="27" height="26" rx="13" fill="#7C509A"/><path d="M17.721 6.61a21.705 21.705 0 0 0-7.817 0c-1.138.236-2.573 1.56-2.82 2.602a14.326 14.326 0 0 0 0 6.15c.297 1.041 1.732 2.366 2.82 2.603.05 0 .1.047.1.094v2.98c0 .143.197.237.296.095l1.484-1.466s1.188-1.183 1.386-1.372c0 0 .049-.048.098-.048 1.485.048 3.019-.094 4.503-.33 1.138-.237 2.573-1.562 2.82-2.603a14.326 14.326 0 0 0 0-6.15c-.297-.994-1.732-2.319-2.87-2.556Zm.05 8.894c-.248.473-.544.852-1.04 1.088l-.444.142a5.967 5.967 0 0 1-.495-.142c-1.583-.615-3.068-1.466-4.255-2.696a11.36 11.36 0 0 1-1.633-2.366c-.198-.426-.396-.804-.544-1.23-.149-.379.099-.757.346-1.041a2.29 2.29 0 0 1 .89-.615c.248-.142.496-.047.694.142.395.473.791.946 1.088 1.466.198.332.148.71-.198.947a.863.863 0 0 0-.247.189c-.05.047-.149.095-.198.19a.443.443 0 0 0-.05.425c.396 1.088 1.138 1.94 2.276 2.413.198.095.346.142.594.142.346-.047.495-.426.742-.615.247-.19.544-.19.841-.047.247.141.495.33.792.52.247.19.494.331.742.52.148.095.198.332.099.568Zm-2.078-3.548c-.1 0-.05 0 0 0-.198 0-.248-.095-.297-.237 0-.094 0-.236-.05-.331a.895.895 0 0 0-.346-.52l-.297-.142c-.148-.048-.247-.048-.396-.048-.148-.047-.197-.142-.197-.284 0-.094.148-.189.247-.189.792.047 1.385.473 1.484 1.372v.19c0 .094-.05.189-.148.189Zm-.495-2.082a3.833 3.833 0 0 0-.792-.237c-.099 0-.247-.047-.346-.047-.148 0-.247-.094-.198-.236 0-.142.1-.237.248-.19.494.048.94.142 1.385.332.89.425 1.385 1.135 1.534 2.081v.615c-.05.19-.396.237-.446 0 0-.047-.049-.142-.049-.189a2.66 2.66 0 0 0-.297-1.23 2.624 2.624 0 0 0-1.039-.899Zm2.672 2.839c-.149 0-.248-.142-.248-.284 0-.284-.049-.568-.099-.852-.197-1.514-1.484-2.744-3.018-2.98-.247-.048-.494-.048-.692-.095-.149 0-.347 0-.396-.19-.05-.141.099-.283.247-.283h.1c2.028.047.098 0 0 0 2.077.047 3.809 1.372 4.155 3.359.05.331.1.662.1 1.04.098.143 0 .285-.15.285Z" fill="#fff"/></svg>