<svg width="26" height="27" fill="none" xmlns="http://www.w3.org/2000/svg"><rect y=".405" width="26" height="26" rx="13" fill="#48C95F"/><path d="M18.152 8.245a6.778 6.778 0 0 0-4.803-1.99c-3.758 0-6.801 3.033-6.801 6.777 0 1.185.332 2.37.903 3.365L6.5 19.905l3.615-.948a6.953 6.953 0 0 0 3.234.805c3.757 0 6.801-3.033 6.801-6.777-.048-1.754-.713-3.46-1.998-4.74Zm-1.521 7.204c-.143.38-.81.759-1.142.806a2.667 2.667 0 0 1-1.046-.047c-.238-.095-.571-.19-.951-.38-1.713-.71-2.807-2.417-2.902-2.559-.095-.095-.713-.9-.713-1.753 0-.854.428-1.233.57-1.422.143-.19.334-.19.476-.19h.333c.095 0 .238-.047.38.284.143.332.476 1.185.524 1.233a.302.302 0 0 1 0 .284.992.992 0 0 1-.19.284c-.096.095-.19.237-.238.285-.095.095-.19.19-.095.332.095.19.428.71.95 1.185.667.568 1.19.758 1.38.853.19.095.285.047.38-.048.096-.095.429-.474.524-.663.095-.19.237-.142.38-.095.143.047.999.474 1.142.569.19.095.285.142.333.19.047.142.047.473-.095.852Z" fill="#fff"/></svg>