<svg width="25" height="25" viewBox="0 0 25 25" fill="none" xmlns="http://www.w3.org/2000/svg">
<path d="M10.4167 18.7499C12.2656 18.7495 14.0613 18.1306 15.5177 16.9916L20.0969 21.5707L21.5698 20.0978L16.9906 15.5187C18.1302 14.0621 18.7496 12.266 18.75 10.4166C18.75 5.82179 15.0115 2.08325 10.4167 2.08325C5.82189 2.08325 2.08334 5.82179 2.08334 10.4166C2.08334 15.0114 5.82189 18.7499 10.4167 18.7499ZM10.4167 4.16658C13.8636 4.16658 16.6667 6.96971 16.6667 10.4166C16.6667 13.8635 13.8636 16.6666 10.4167 16.6666C6.9698 16.6666 4.16668 13.8635 4.16668 10.4166C4.16668 6.96971 6.9698 4.16658 10.4167 4.16658Z" fill="#7C7C81"/>
</svg>
