<svg width="53" height="53" viewBox="0 0 53 53" fill="none" xmlns="http://www.w3.org/2000/svg">
<path d="M34.4942 24.7775C34.2189 24.4983 33.844 24.34 33.452 24.3372C33.0599 24.3344 32.6828 24.4875 32.4036 24.7628C32.1245 25.0381 31.9661 25.413 31.9633 25.805C31.9605 26.1971 32.1136 26.5742 32.3889 26.8534L37.8656 32.3889H11.5275C11.1371 32.3889 10.7626 32.544 10.4865 32.8201C10.2104 33.0962 10.0553 33.4707 10.0553 33.8611C10.0553 34.2516 10.2104 34.6261 10.4865 34.9022C10.7626 35.1783 11.1371 35.3334 11.5275 35.3334H37.8656L32.3889 40.7806C32.2526 40.9178 32.1447 41.0806 32.0713 41.2596C31.9979 41.4386 31.9605 41.6303 31.9611 41.8237C31.9618 42.0171 32.0006 42.2086 32.0753 42.387C32.1499 42.5655 32.259 42.7275 32.3963 42.8638C32.5335 43.0001 32.6963 43.108 32.8753 43.1814C33.0543 43.2548 33.2459 43.2922 33.4394 43.2915C33.6328 43.2909 33.8242 43.2521 34.0027 43.1774C34.1812 43.1028 34.3432 42.9937 34.4795 42.8564L43.4747 33.8611L34.4942 24.7775Z" fill="white"/>
<path d="M19.4922 27.1625C19.7846 27.1642 20.0709 27.0788 20.3146 26.9172C20.5583 26.7555 20.7483 26.525 20.8605 26.2549C20.9726 25.9848 21.0018 25.6875 20.9442 25.4008C20.8867 25.1141 20.7451 24.851 20.5375 24.645L15.0755 19.1389H41.3989C41.7893 19.1389 42.1638 18.9838 42.4399 18.7077C42.716 18.4316 42.8711 18.0572 42.8711 17.6667C42.8711 17.2763 42.716 16.9018 42.4399 16.6257C42.1638 16.3496 41.7893 16.1945 41.3989 16.1945H15.0755L20.5375 10.7031C20.6738 10.5658 20.7817 10.4031 20.8551 10.2241C20.9285 10.0451 20.9659 9.85343 20.9653 9.65998C20.9646 9.46654 20.9258 9.27513 20.8511 9.09667C20.7765 8.91822 20.6674 8.75621 20.5301 8.61991C20.3929 8.48361 20.2301 8.37568 20.0511 8.30228C19.8721 8.22889 19.6805 8.19146 19.487 8.19215C19.0963 8.19353 18.7222 8.35005 18.4469 8.62727L9.45166 17.6667L18.4469 26.7062C18.5821 26.8479 18.7441 26.9613 18.9236 27.0397C19.1031 27.1181 19.2964 27.1598 19.4922 27.1625Z" fill="white"/>
</svg>
