<svg width="40" height="40" viewBox="0 0 40 40" fill="none" xmlns="http://www.w3.org/2000/svg">
<path d="M16.6666 30C19.6249 29.9994 22.498 29.0091 24.8283 27.1867L32.155 34.5134L34.5116 32.1567L27.185 24.83C29.0083 22.4995 29.9993 19.6258 30 16.6667C30 9.31504 24.0183 3.33337 16.6666 3.33337C9.31498 3.33337 3.33331 9.31504 3.33331 16.6667C3.33331 24.0184 9.31498 30 16.6666 30ZM16.6666 6.66671C22.1816 6.66671 26.6666 11.1517 26.6666 16.6667C26.6666 22.1817 22.1816 26.6667 16.6666 26.6667C11.1516 26.6667 6.66665 22.1817 6.66665 16.6667C6.66665 11.1517 11.1516 6.66671 16.6666 6.66671Z" fill="white"/>
</svg>
