<svg width="28" height="28" viewBox="0 0 28 28" fill="none" xmlns="http://www.w3.org/2000/svg">
<path d="M21.651 27.9999C21.3784 27.9992 21.1068 27.9686 20.8406 27.9088C15.773 26.8368 11.1045 24.3232 7.3722 20.6575C3.71958 16.9836 1.18629 12.3061 0.078837 7.19073C-0.0517454 6.5532 -0.0196953 5.89203 0.171904 5.27084C0.363503 4.64964 0.708203 4.08933 1.17284 3.6438L4.41433 0.453215C4.5799 0.293095 4.77662 0.170479 4.99166 0.0933687C5.2067 0.0162584 5.43522 -0.0136128 5.66231 0.00570463C5.89777 0.0308256 6.125 0.108394 6.328 0.232956C6.53101 0.357517 6.70487 0.526047 6.83735 0.726693L10.8892 6.85095C11.0412 7.08858 11.1145 7.36981 11.0985 7.65326C11.0824 7.93671 10.9778 8.20741 10.8001 8.42552L8.76604 10.9117C9.57613 12.7452 10.7234 14.4023 12.1453 15.7929C13.558 17.2338 15.2278 18.3844 17.0643 19.1823L19.5845 17.1354C19.7962 16.9643 20.0538 16.8632 20.323 16.8454C20.5922 16.8276 20.8604 16.8941 21.0918 17.0359L27.2101 21.0801C27.4201 21.2083 27.599 21.3834 27.7333 21.5924C27.8677 21.8013 27.9541 22.0386 27.9861 22.2866C28.0181 22.5345 27.9947 22.7866 27.9179 23.024C27.8411 23.2614 27.7127 23.478 27.5424 23.6574L24.3819 26.8563C24.0229 27.2216 23.5968 27.5108 23.1281 27.707C22.6594 27.9033 22.1574 28.0028 21.651 27.9999V27.9999ZM5.53265 1.64657L2.29116 4.83715C2.02977 5.08623 1.83628 5.40059 1.72972 5.74932C1.62315 6.09804 1.60718 6.46913 1.68338 6.82609C2.71313 11.6262 5.08023 16.0185 8.49861 19.4724C12.0109 22.9212 16.4043 25.2854 21.1729 26.2928C21.5338 26.3699 21.9078 26.3543 22.2614 26.2473C22.615 26.1402 22.9371 25.9452 23.1988 25.6795L26.3592 22.4807L20.4516 18.5774L17.745 20.7818C17.6414 20.8656 17.5193 20.9223 17.3893 20.9469C17.2594 20.9714 17.1255 20.9631 16.9994 20.9227C14.752 20.0759 12.7154 18.7317 11.0351 16.9862C9.29712 15.3265 7.94807 13.2868 7.08857 11.0194C7.0522 10.8822 7.051 10.7376 7.08506 10.5998C7.11912 10.4619 7.1873 10.3353 7.28305 10.2321L9.47106 7.55536L5.53265 1.64657Z" fill="#7C7C81"/>
</svg>
