<svg width="34" height="34" viewBox="0 0 34 34" fill="none" xmlns="http://www.w3.org/2000/svg">
<path d="M11.8547 6.78578L7.97867 5.49236C7.55272 5.35049 7.09917 5.31187 6.65537 5.37969C6.21157 5.4475 5.79024 5.6198 5.4261 5.88239C5.06196 6.14498 4.76543 6.49035 4.56095 6.89002C4.35647 7.2897 4.24989 7.73225 4.25 8.18119V24.8738C4.24986 25.4687 4.43697 26.0485 4.78481 26.5311C5.13266 27.0137 5.62358 27.3746 6.188 27.5626L11.8547 29.451C12.4359 29.6446 13.0641 29.6446 13.6453 29.451L20.3547 27.2155C20.9359 27.022 21.5641 27.022 22.1453 27.2155L26.0213 28.5075C26.4474 28.6494 26.9011 28.688 27.345 28.6201C27.7889 28.5523 28.2103 28.3798 28.5745 28.1171C28.9386 27.8543 29.2351 27.5088 29.4395 27.1089C29.6439 26.7091 29.7503 26.2663 29.75 25.8173V9.12611C29.7502 8.53139 29.5633 7.95166 29.2158 7.46908C28.8682 6.98649 28.3776 6.62551 27.8134 6.43728L22.1468 4.54886C21.5651 4.35497 20.9363 4.35497 20.3547 4.54886L13.6439 6.78436C13.0627 6.97794 12.4344 6.97794 11.8532 6.78436L11.8547 6.78578Z" stroke="white" stroke-width="2" stroke-linecap="round" stroke-linejoin="round"/>
<path d="M21.25 4.25V26.9167M12.75 7.08333V29.75V7.08333Z" stroke="white" stroke-width="2" stroke-linejoin="round"/>
</svg>
