<svg width="27" height="27" viewBox="0 0 27 27" fill="none" xmlns="http://www.w3.org/2000/svg">
<rect y="0.404541" width="27" height="26" rx="13" fill="url(#paint0_radial_0_699)"/>
<path d="M13.5 8.07924C15.2892 8.07924 15.5331 8.07924 16.2651 8.07924C16.9157 8.07924 17.241 8.23587 17.4849 8.31418C17.8102 8.47081 18.0542 8.54912 18.2982 8.78406C18.5422 9.019 18.7048 9.25394 18.7861 9.56719C18.8675 9.80213 18.9488 10.1154 19.0301 10.7419C19.0301 11.4467 19.0301 11.6033 19.0301 13.4045C19.0301 15.2057 19.0301 15.3624 19.0301 16.0672C19.0301 16.6937 18.8675 17.007 18.7861 17.2419C18.6235 17.5551 18.5422 17.7901 18.2982 18.025C18.0542 18.26 17.8102 18.4166 17.4849 18.4949C17.241 18.5732 16.9157 18.6515 16.2651 18.7298C15.5331 18.7298 15.3705 18.7298 13.5 18.7298C11.6295 18.7298 11.4669 18.7298 10.7349 18.7298C10.0843 18.7298 9.75904 18.5732 9.51506 18.4949C9.18976 18.3383 8.94578 18.26 8.70181 18.025C8.45783 17.7901 8.29518 17.5551 8.21386 17.2419C8.13253 17.007 8.0512 16.6937 7.96988 16.0672C7.96988 15.3624 7.96988 15.2057 7.96988 13.4045C7.96988 11.6033 7.96988 11.4467 7.96988 10.7419C7.96988 10.1154 8.13253 9.80213 8.21386 9.56719C8.37651 9.25394 8.45783 9.019 8.70181 8.78406C8.94578 8.54912 9.18976 8.39249 9.51506 8.31418C9.75904 8.23587 10.0843 8.15755 10.7349 8.07924C11.4669 8.07924 11.7108 8.07924 13.5 8.07924ZM13.5 6.90454C11.6295 6.90454 11.4669 6.90454 10.7349 6.90454C10.003 6.90454 9.51506 7.06117 9.10843 7.21779C8.70181 7.37442 8.29518 7.60936 7.88855 8.00093C7.48193 8.39249 7.31928 8.70575 7.0753 9.17563C6.91265 9.56719 6.83133 10.0371 6.75 10.7419C6.75 11.4467 6.75 11.6817 6.75 13.4045C6.75 15.2057 6.75 15.3624 6.75 16.0672C6.75 16.772 6.91265 17.2419 7.0753 17.6335C7.23795 18.025 7.48193 18.4166 7.88855 18.8082C8.29518 19.1997 8.62048 19.3564 9.10843 19.5913C9.51506 19.7479 10.003 19.8262 10.7349 19.9045C11.4669 19.9045 11.7108 19.9045 13.5 19.9045C15.2892 19.9045 15.5331 19.9045 16.2651 19.9045C16.997 19.9045 17.4849 19.7479 17.8916 19.5913C18.2982 19.4347 18.7048 19.1997 19.1114 18.8082C19.5181 18.4166 19.6807 18.1033 19.9247 17.6335C20.0874 17.2419 20.1687 16.772 20.25 16.0672C20.25 15.3624 20.25 15.1274 20.25 13.4045C20.25 11.6817 20.25 11.4467 20.25 10.7419C20.25 10.0371 20.0874 9.56719 19.9247 9.17563C19.762 8.78406 19.5181 8.39249 19.1114 8.00093C18.7048 7.60936 18.3795 7.45273 17.8916 7.21779C17.4849 7.06117 16.997 6.98285 16.2651 6.90454C15.5331 6.90454 15.3705 6.90454 13.5 6.90454Z" fill="white"/>
<path d="M13.5 10.0371C11.5482 10.0371 10.003 11.525 10.003 13.4045C10.003 15.2841 11.5482 16.772 13.5 16.772C15.4518 16.772 16.997 15.2841 16.997 13.4045C16.997 11.525 15.4518 10.0371 13.5 10.0371ZM13.5 15.5973C12.2801 15.5973 11.2229 14.6576 11.2229 13.4045C11.2229 12.2298 12.1988 11.2118 13.5 11.2118C14.7199 11.2118 15.7771 12.1515 15.7771 13.4045C15.7771 14.5792 14.7199 15.5973 13.5 15.5973Z" fill="white"/>
<path d="M17.0783 10.7419C17.5275 10.7419 17.8916 10.3913 17.8916 9.95876C17.8916 9.52625 17.5275 9.17563 17.0783 9.17563C16.6292 9.17563 16.2651 9.52625 16.2651 9.95876C16.2651 10.3913 16.6292 10.7419 17.0783 10.7419Z" fill="white"/>
<defs>
<radialGradient id="paint0_radial_0_699" cx="0" cy="0" r="1" gradientUnits="userSpaceOnUse" gradientTransform="translate(27.5432 0.932667) scale(62.351 60.0417)">
<stop stop-color="#F9ED32"/>
<stop offset="0.36" stop-color="#EE2A7B"/>
<stop offset="0.44" stop-color="#D22A8A"/>
<stop offset="0.6" stop-color="#8B2AB2"/>
<stop offset="0.83" stop-color="#1B2AF0"/>
<stop offset="0.88" stop-color="#002AFF"/>
</radialGradient>
</defs>
</svg>
