<svg width="22" height="22" viewBox="0 0 22 22" fill="none" xmlns="http://www.w3.org/2000/svg">
<path d="M4.81251 3.66675H17.1875C17.9485 3.6667 18.6806 3.95784 19.2337 4.48045C19.7868 5.00305 20.119 5.71751 20.1621 6.47725L20.1667 6.64591V15.3542C20.1667 16.1152 19.8756 16.8473 19.353 17.4005C18.8304 17.9536 18.1159 18.2857 17.3562 18.3288L17.1875 18.3334H4.81251C4.05155 18.3335 3.31942 18.0423 2.7663 17.5197C2.21318 16.9971 1.88101 16.2827 1.83793 15.5229L1.83334 15.3542V6.64591C1.83329 5.88495 2.12443 5.15282 2.64704 4.5997C3.16965 4.04658 3.8841 3.71441 4.64384 3.67133L4.81251 3.66675H17.1875H4.81251ZM18.7917 8.592L11.3208 12.5245C11.2365 12.5691 11.1438 12.5956 11.0486 12.6024C10.9535 12.6092 10.8579 12.5961 10.7681 12.5639L10.6801 12.5254L3.20834 8.59291V15.3542C3.20836 15.7568 3.35975 16.1447 3.63247 16.4409C3.90518 16.737 4.27928 16.9198 4.68051 16.9529L4.81251 16.9584H17.1875C17.5902 16.9584 17.9782 16.8069 18.2744 16.534C18.5706 16.261 18.7533 15.8867 18.7862 15.4853L18.7917 15.3542V8.592ZM17.1875 5.04175H4.81251C4.40992 5.04176 4.02205 5.19315 3.7259 5.46587C3.42975 5.73859 3.24697 6.11269 3.21384 6.51391L3.20834 6.64591V7.03916L11 11.1394L18.7917 7.03825V6.64591C18.7916 6.24318 18.6401 5.85519 18.3672 5.55902C18.0943 5.26284 17.72 5.08016 17.3186 5.04725L17.1875 5.04175Z" fill="white"/>
</svg>
