<svg width="17" height="17" viewBox="0 0 17 17" fill="none" xmlns="http://www.w3.org/2000/svg">
<path d="M13.1452 17C12.9798 16.9995 12.8148 16.9809 12.6532 16.9446C9.57649 16.2937 6.74199 14.7677 4.47598 12.542C2.25831 10.3115 0.720246 7.47155 0.0478653 4.3658C-0.0314169 3.97873 -0.0119579 3.57731 0.10437 3.20015C0.220698 2.823 0.42998 2.48281 0.712082 2.2123L2.68013 0.275166C2.78065 0.177951 2.90009 0.103505 3.03065 0.0566882C3.16121 0.00987117 3.29995 -0.00826493 3.43783 0.00346353C3.58079 0.0187156 3.71875 0.0658109 3.842 0.141437C3.96526 0.217064 4.07081 0.319385 4.15125 0.441206L6.61131 4.15951C6.70356 4.30378 6.7481 4.47453 6.73835 4.64662C6.72861 4.81872 6.66511 4.98307 6.55719 5.1155L5.32224 6.62495C5.81408 7.73815 6.51062 8.74427 7.37393 9.58852C8.23165 10.4634 9.24546 11.162 10.3604 11.6464L11.8906 10.4036C12.0191 10.2998 12.1755 10.2384 12.339 10.2276C12.5024 10.2168 12.6652 10.2571 12.8057 10.3433L16.5204 12.7986C16.6479 12.8765 16.7565 12.9828 16.8381 13.1097C16.9197 13.2365 16.9722 13.3806 16.9916 13.5311C17.011 13.6817 16.9968 13.8347 16.9502 13.9789C16.9035 14.123 16.8256 14.2545 16.7222 14.3634L14.8033 16.3056C14.5853 16.5274 14.3266 16.703 14.0421 16.8221C13.7575 16.9413 13.4527 17.0017 13.1452 17V17ZM3.35911 0.999706L1.39106 2.93684C1.23236 3.08807 1.11489 3.27893 1.05019 3.49066C0.985485 3.70238 0.975789 3.92769 1.02205 4.14441C1.64726 7.05874 3.08443 9.72553 5.15987 11.8225C7.29235 13.9164 9.95975 15.3518 12.8549 15.9635C13.0741 16.0103 13.3012 16.0008 13.5159 15.9358C13.7305 15.8709 13.9261 15.7524 14.085 15.5911L16.0038 13.649L12.4171 11.2791L10.7737 12.6175C10.7108 12.6684 10.6367 12.7028 10.5578 12.7177C10.4789 12.7327 10.3976 12.7276 10.3211 12.703C8.95659 12.1889 7.72004 11.3728 6.69987 10.3131C5.64468 9.30535 4.82561 8.06699 4.30377 6.69036C4.28169 6.60702 4.28096 6.51928 4.30164 6.43556C4.32232 6.35185 4.36372 6.27499 4.42185 6.21237L5.75029 4.58719L3.35911 0.999706Z" fill="white"/>
</svg>
