<svg width="12" height="24" viewBox="0 0 12 24" fill="none" xmlns="http://www.w3.org/2000/svg">
<path d="M0.26712 0.282425C0.0958717 0.467065 0 0.714929 0 0.973033C0 1.23114 0.0958717 1.479 0.26712 1.66364L9.83452 12L0.26712 22.3343C0.0958717 22.5189 0 22.7668 0 23.0249C0 23.283 0.0958717 23.5309 0.26712 23.7155C0.350358 23.8055 0.44988 23.8771 0.55981 23.926C0.66974 23.9748 0.787851 24 0.907171 24C1.02649 24 1.1446 23.9748 1.25453 23.926C1.36446 23.8771 1.46399 23.8055 1.54722 23.7155L11.7213 12.7216C11.9 12.5286 12 12.2696 12 12C12 11.7304 11.9 11.4714 11.7213 11.2784L1.54722 0.284493C1.46399 0.194459 1.36446 0.122899 1.25453 0.0740364C1.1446 0.0251741 1.02649 0 0.907171 0C0.787851 0 0.66974 0.0251741 0.55981 0.0740364C0.44988 0.122899 0.350358 0.194459 0.26712 0.284493V0.282425Z" fill="white"/>
</svg>
