<svg width="29" height="30" viewBox="0 0 29 30" fill="none" xmlns="http://www.w3.org/2000/svg">
<path d="M14.5 0.147949C6.5047 0.147949 0 6.65265 0 14.6479C0 22.6432 6.5047 29.148 14.5 29.148C22.4953 29.148 29 22.6432 29 14.6479C29 6.65265 22.4953 0.147949 14.5 0.147949ZM14.5 26.248C8.10405 26.248 2.9 21.0439 2.9 14.6479C2.9 8.252 8.10405 3.04795 14.5 3.04795C20.896 3.04795 26.1 8.252 26.1 14.6479C26.1 21.0439 20.896 26.248 14.5 26.248Z" fill="#7C7C81"/>
<path d="M15.9498 7.39795H13.0498V15.2482L17.8247 20.0231L19.875 17.9728L15.9498 14.0476V7.39795Z" fill="#7C7C81"/>
</svg>
