<svg width="27" height="27" viewBox="0 0 27 27" fill="none" xmlns="http://www.w3.org/2000/svg">
<rect y="0.404541" width="27" height="26" rx="13" fill="#7C509A"/>
<path d="M17.7214 6.60948C15.1486 6.13636 12.4769 6.13636 9.90412 6.60948C8.76616 6.84605 7.33135 8.1708 7.08397 9.21167C6.63868 11.2461 6.63868 13.3279 7.08397 15.3623C7.38082 16.4032 8.81564 17.7279 9.90412 17.9645C9.9536 17.9645 10.0031 18.0118 10.0031 18.0591V21.0398C10.0031 21.1817 10.201 21.2764 10.2999 21.1344L11.7842 19.6677C11.7842 19.6677 12.9717 18.4849 13.1696 18.2957C13.1696 18.2957 13.219 18.2484 13.2685 18.2484C14.7528 18.2957 16.2866 18.1537 17.7709 17.9172C18.9088 17.6806 20.3437 16.3559 20.591 15.315C21.0363 13.2805 21.0363 11.1988 20.591 9.16436C20.2942 8.1708 18.8594 6.84605 17.7214 6.60948ZM17.7709 15.5042C17.5235 15.9774 17.2266 16.3559 16.7319 16.5924C16.5834 16.6397 16.435 16.6871 16.2866 16.7344C16.0887 16.6871 15.9402 16.6397 15.7918 16.5924C14.2086 15.9774 12.7243 15.1257 11.5368 13.8956C10.8937 13.1859 10.3494 12.3816 9.90412 11.53C9.70622 11.1042 9.50831 10.7257 9.35988 10.2999C9.21145 9.92136 9.45883 9.54286 9.70622 9.25898C9.9536 8.97511 10.2505 8.78586 10.5968 8.64392C10.8442 8.50198 11.0916 8.59661 11.2895 8.78586C11.6853 9.25898 12.0811 9.73211 12.3779 10.2525C12.5758 10.5837 12.5264 10.9622 12.18 11.1988C12.0811 11.2461 12.0316 11.2934 11.9327 11.388C11.8832 11.4354 11.7842 11.4827 11.7347 11.5773C11.6358 11.7192 11.6358 11.8612 11.6853 12.0031C12.0811 13.0913 12.8232 13.9429 13.9612 14.416C14.1591 14.5107 14.3075 14.558 14.5549 14.558C14.9012 14.5107 15.0497 14.1322 15.2971 13.9429C15.5444 13.7537 15.8413 13.7537 16.1382 13.8956C16.3855 14.0375 16.6329 14.2268 16.9298 14.416C17.1772 14.6053 17.4245 14.7472 17.6719 14.9365C17.8204 15.0311 17.8698 15.2677 17.7709 15.5042ZM15.6929 11.9558C15.5939 11.9558 15.6434 11.9558 15.6929 11.9558C15.495 11.9558 15.4455 11.8612 15.396 11.7192C15.396 11.6246 15.396 11.4827 15.3465 11.388C15.2971 11.1988 15.1981 11.0095 15.0002 10.8676C14.9012 10.8203 14.8023 10.773 14.7033 10.7257C14.5549 10.6784 14.456 10.6784 14.3075 10.6784C14.1591 10.631 14.1096 10.5364 14.1096 10.3945C14.1096 10.2999 14.258 10.2052 14.357 10.2052C15.1486 10.2525 15.7423 10.6784 15.8413 11.5773C15.8413 11.6246 15.8413 11.7192 15.8413 11.7665C15.8413 11.8612 15.7918 11.9558 15.6929 11.9558ZM15.1981 9.87405C14.9507 9.77942 14.7033 9.6848 14.4065 9.63748C14.3075 9.63748 14.1591 9.59017 14.0601 9.59017C13.9117 9.59017 13.8128 9.49555 13.8622 9.35361C13.8622 9.21167 13.9612 9.11705 14.1096 9.16436C14.6044 9.21167 15.0497 9.3063 15.495 9.49555C16.3855 9.92136 16.8803 10.631 17.0287 11.5773C17.0287 11.6246 17.0287 11.6719 17.0287 11.7192C17.0287 11.8139 17.0287 11.9085 17.0287 12.0504C17.0287 12.0977 17.0287 12.145 17.0287 12.1924C16.9793 12.3816 16.6329 12.4289 16.5834 12.1924C16.5834 12.145 16.534 12.0504 16.534 12.0031C16.534 11.5773 16.435 11.1515 16.2371 10.773C15.9402 10.3472 15.5939 10.0633 15.1981 9.87405ZM17.8698 12.7128C17.7214 12.7128 17.6224 12.5709 17.6224 12.4289C17.6224 12.145 17.573 11.8612 17.5235 11.5773C17.3256 10.0633 16.0392 8.83317 14.5054 8.59661C14.2581 8.5493 14.0107 8.5493 13.8128 8.50198C13.6643 8.50198 13.4664 8.50198 13.4169 8.31273C13.3675 8.1708 13.5159 8.02886 13.6643 8.02886C13.7138 8.02886 13.7633 8.02886 13.7633 8.02886C15.7918 8.07617 13.8622 8.02886 13.7633 8.02886C15.8413 8.07617 17.573 9.40092 17.9193 11.388C17.9688 11.7192 18.0183 12.0504 18.0183 12.4289C18.1172 12.5709 18.0183 12.7128 17.8698 12.7128Z" fill="white"/>
</svg>
