<svg width="26" height="27" viewBox="0 0 26 27" fill="none" xmlns="http://www.w3.org/2000/svg">
<rect y="0.404541" width="26" height="26" rx="13" fill="#0077FF"/>
<path d="M13.6386 17.9545C8.75288 17.9545 5.96612 14.5386 5.85001 8.85449H8.29735C8.37774 13.0265 10.182 14.7936 11.6111 15.158V8.85449H13.9155V12.4526C15.3268 12.2977 16.8095 10.6581 17.3097 8.85449H19.6141C19.4256 9.78989 19.0499 10.6756 18.5104 11.4561C17.971 12.2367 17.2794 12.8953 16.479 13.3908C17.3725 13.8436 18.1616 14.4845 18.7944 15.2711C19.4272 16.0578 19.8892 16.9724 20.15 17.9545H17.6133C17.3793 17.1014 16.9035 16.3378 16.2457 15.7593C15.5879 15.1808 14.7773 14.8132 13.9155 14.7025V17.9545H13.6386V17.9545Z" fill="white"/>
</svg>
