<svg width="26" height="27" viewBox="0 0 26 27" fill="none" xmlns="http://www.w3.org/2000/svg">
<rect y="0.404541" width="26" height="26" rx="13" fill="#48C95F"/>
<path d="M18.1524 8.24526C16.8683 6.96558 15.1561 6.25464 13.3488 6.25464C9.59146 6.25464 6.54756 9.28797 6.54756 13.0322C6.54756 14.2171 6.88049 15.402 7.45122 16.3973L6.5 19.9046L10.1146 18.9567C11.1134 19.4781 12.2073 19.7625 13.3488 19.7625C17.1061 19.7625 20.15 16.7291 20.15 12.9848C20.1024 11.2312 19.4366 9.52495 18.1524 8.24526ZM16.6305 15.4494C16.4878 15.8286 15.8219 16.2078 15.489 16.2552C15.2037 16.3026 14.8232 16.3026 14.4427 16.2078C14.2049 16.113 13.872 16.0182 13.4915 15.8286C11.7793 15.1177 10.6854 13.4114 10.5902 13.2692C10.4951 13.1744 9.87683 12.3687 9.87683 11.5156C9.87683 10.6625 10.3049 10.2833 10.4476 10.0937C10.5902 9.90412 10.7805 9.90412 10.9232 9.90412C11.0183 9.90412 11.161 9.90412 11.2561 9.90412C11.3512 9.90412 11.4939 9.85672 11.6366 10.1885C11.7793 10.5203 12.1122 11.3734 12.1598 11.4208C12.2073 11.5156 12.2073 11.6104 12.1598 11.7052C12.1122 11.8 12.0646 11.8947 11.9695 11.9895C11.8744 12.0843 11.7793 12.2265 11.7317 12.2739C11.6366 12.3687 11.5415 12.4635 11.6366 12.6057C11.7317 12.7953 12.0646 13.3166 12.5878 13.7906C13.2537 14.3593 13.7768 14.5489 13.9671 14.6437C14.1573 14.7385 14.2524 14.6911 14.3476 14.5963C14.4427 14.5015 14.7756 14.1223 14.8707 13.9328C14.9659 13.7432 15.1085 13.7906 15.2512 13.838C15.3939 13.8854 16.25 14.3119 16.3927 14.4067C16.5829 14.5015 16.678 14.5489 16.7256 14.5963C16.7732 14.7385 16.7732 15.0703 16.6305 15.4494Z" fill="white"/>
</svg>
