<svg width="25" height="25" viewBox="0 0 25 25" fill="none" xmlns="http://www.w3.org/2000/svg">
<path d="M0 12.5C0 5.59644 5.59644 0 12.5 0V0C19.4036 0 25 5.59644 25 12.5V12.5C25 19.4036 19.4036 25 12.5 25V25C5.59644 25 0 19.4036 0 12.5V12.5Z" fill="#FF0000"/>
<path d="M21.0616 8.20652C20.8556 7.44156 20.2525 6.83843 19.4875 6.63248C18.09 6.25 12.5 6.25 12.5 6.25C12.5 6.25 6.90993 6.25 5.51242 6.61777C4.76218 6.82371 4.14433 7.44156 3.93838 8.20652C3.57062 9.60403 3.57062 12.502 3.57062 12.502C3.57062 12.502 3.57062 15.4147 3.93838 16.7975C4.14433 17.5625 4.74747 18.1656 5.51242 18.3716C6.92464 18.754 12.5 18.754 12.5 18.754C12.5 18.754 18.09 18.754 19.4875 18.3863C20.2525 18.1803 20.8556 17.5772 21.0616 16.8122C21.4293 15.4147 21.4293 12.5167 21.4293 12.5167C21.4293 12.5167 21.444 9.60403 21.0616 8.20652Z" fill="white"/>
<path d="M10.72 15.1794L15.3685 12.502L10.72 9.82471V15.1794Z" fill="#FF0000"/>
</svg>
